<svg width="18" height="18" viewBox="0 0 18 18" fill="none" xmlns="http://www.w3.org/2000/svg">
<g clip-path="url(#clip0_2_38)">
<path d="M16.65 9.02107C16.65 5.53006 14.291 2.48552 10.909 1.61716C10.5856 1.53279 10.2551 1.72966 10.1742 2.0531C10.0899 2.37654 10.2867 2.70701 10.6102 2.78787C13.4543 3.5156 15.4407 6.08201 15.4407 9.02107C15.4407 11.6121 13.8973 13.9078 11.5875 14.9168L12.1465 13.616C12.2766 13.3101 12.136 12.9551 11.8301 12.8215C11.5242 12.6914 11.1692 12.832 11.0356 13.1379L9.94573 15.6762C9.81565 15.982 9.95628 16.3371 10.2621 16.4707L12.8004 17.5605C13.1801 17.6941 13.4965 17.4726 13.595 17.2441C13.725 16.9383 13.5844 16.5832 13.2785 16.4496L12.1746 15.975C14.8641 14.7586 16.65 12.0586 16.65 9.02107Z" fill="white"/>
<path d="M7.3969 15.2543C4.55276 14.523 2.56643 11.9601 2.56643 9.02107C2.56643 6.46521 4.0676 4.19763 6.32463 3.16756L5.80081 4.38396C5.67073 4.68982 5.80432 5.05896 6.11721 5.17849C6.48284 5.3156 6.79221 5.15037 6.91174 4.86209L8.00159 2.32029C8.10706 2.0742 8.10354 1.70506 7.68518 1.52576L5.1469 0.435915C4.84104 0.305837 4.48596 0.446462 4.35237 0.752321C4.22229 1.05818 4.36292 1.41326 4.66877 1.54685L5.85002 2.0531C3.15002 3.27302 1.35706 5.97654 1.35706 9.02107C1.35706 12.5121 3.71956 15.5531 7.09807 16.425C7.50588 16.5304 7.76252 16.2633 7.83284 15.989C7.9137 15.6656 7.72034 15.3386 7.3969 15.2543Z" fill="white"/>
<path d="M10.4274 11.2992C10.7367 10.9758 10.8914 10.5679 10.8914 10.0828C10.8914 9.86131 10.8527 9.6574 10.7789 9.46756C10.7051 9.27771 10.5996 9.11599 10.4625 8.97537C10.3254 8.83826 10.1461 8.72224 9.92814 8.62381C9.81212 8.57459 9.58009 8.50427 9.22501 8.41638V6.39841C9.45353 6.44412 9.63282 6.54256 9.76642 6.69021C9.8965 6.83787 9.98439 7.04881 10.0266 7.32302L10.7508 7.21404C10.6875 6.77107 10.5047 6.41951 10.1988 6.16638C9.95978 5.96599 9.63634 5.84646 9.22853 5.80779V5.47381H8.81368V5.80779C8.34962 5.85349 7.99806 5.98357 7.76251 6.19099C7.40743 6.50037 7.23165 6.90467 7.23165 7.40388C7.23165 7.68513 7.29142 7.93474 7.41447 8.15623C7.534 8.37771 7.70626 8.54998 7.93126 8.67302C8.23361 8.84177 8.52892 8.95427 8.8172 9.00701V11.2394C8.54298 11.2113 8.30392 11.0707 8.10704 10.8211C7.96993 10.6453 7.8715 10.3676 7.81876 9.99138L7.11212 10.125C7.13673 10.4871 7.23165 10.7965 7.38986 11.0496C7.54806 11.3027 7.7379 11.4855 7.95939 11.598C8.17736 11.7105 8.46564 11.7879 8.81368 11.8336V12.5332H9.22853V11.823C9.72072 11.7984 10.1215 11.6226 10.4274 11.2992ZM8.8172 8.32849C8.49728 8.23357 8.27228 8.10349 8.13868 7.94177C8.00509 7.78006 7.93829 7.57966 7.93829 7.3406C7.93829 7.09802 8.01564 6.8906 8.17384 6.71482C8.33204 6.53904 8.5465 6.43006 8.8172 6.38787V8.32849ZM9.90353 10.8808C9.72423 11.0847 9.49923 11.2008 9.22853 11.2359V9.10193C9.6047 9.22498 9.85782 9.36209 9.98439 9.51677C10.1109 9.67146 10.1742 9.87537 10.1742 10.132C10.1707 10.4273 10.0828 10.6804 9.90353 10.8808Z" fill="white"/>
</g>
<defs>
<clipPath id="clip0_2_38">
<rect width="18" height="18" fill="white"/>
</clipPath>
</defs>
</svg>
