<svg width="200" height="200" viewBox="0 0 200 200" fill="none" xmlns="http://www.w3.org/2000/svg">
<g clip-path="url(#clip0_1901_9)">
<circle cx="100" cy="100" r="100" fill="#1E192D"/>
<path d="M171 100.117C171 67.6132 149.341 39.2669 118.289 31.1819C115.32 30.3964 112.285 32.2294 111.543 35.2408C110.768 38.2522 112.576 41.329 115.546 42.0819C141.659 48.8575 159.896 72.7522 159.896 100.117C159.896 124.24 145.726 145.615 124.519 155.009L129.651 142.898C130.846 140.05 129.554 136.744 126.746 135.5C123.938 134.289 120.678 135.599 119.451 138.446L109.445 162.079C108.251 164.927 109.542 168.233 112.35 169.477L135.655 179.624C139.141 180.868 142.046 178.805 142.95 176.678C144.144 173.83 142.853 170.524 140.045 169.28L129.909 164.861C154.603 153.536 171 128.397 171 100.117V100.117Z" fill="#FF585F"/>
<path d="M84.9703 157.921C59.085 151.137 41.0069 127.361 41.0069 100.095C41.0069 76.3839 54.6695 55.3473 75.2114 45.7912L70.4438 57.0759C69.26 59.9134 70.4758 63.338 73.3235 64.4469C76.6512 65.7188 79.4669 64.1859 80.5548 61.5115L90.4738 37.931C91.4337 35.648 91.4017 32.2235 87.5941 30.5601L64.4925 20.4495C61.7087 19.2428 58.4771 20.5474 57.2612 23.3849C56.0773 26.2223 57.3572 29.5164 60.1409 30.7558L70.8918 35.4523C46.3183 46.7696 30 71.8504 30 100.095C30 132.481 51.5018 160.693 82.2506 168.782C85.9622 169.76 88.298 167.281 88.9379 164.737C89.6739 161.737 87.914 158.704 84.9703 157.921V157.921Z" fill="#FF585F"/>
<path d="M116.72 126.666C120.24 122.909 122 118.172 122 112.537C122 109.964 121.56 107.596 120.72 105.39C119.88 103.185 118.68 101.307 117.12 99.6733C115.56 98.0807 113.52 96.7331 111.04 95.5896C109.72 95.0179 107.08 94.2012 103.04 93.1803V69.74C105.64 70.2709 107.68 71.4143 109.2 73.1295C110.68 74.8446 111.68 77.2948 112.16 80.4801L120.4 79.2141C119.68 74.0687 117.6 69.9851 114.12 67.0448C111.4 64.7171 107.72 63.3287 103.08 62.8795V59H98.36V62.8795C93.08 63.4104 89.08 64.9213 86.4 67.3307C82.36 70.9243 80.36 75.6205 80.36 81.4193C80.36 84.6863 81.04 87.5857 82.44 90.1584C83.8 92.7311 85.76 94.7321 88.32 96.1614C91.76 98.1215 95.12 99.4283 98.4 100.041V125.972C95.28 125.645 92.56 124.012 90.32 121.113C88.76 119.071 87.64 115.845 87.04 111.475L79 113.027C79.28 117.233 80.36 120.827 82.16 123.767C83.96 126.707 86.12 128.831 88.64 130.137C91.12 131.444 94.4 132.343 98.36 132.874V141H103.08V132.751C108.68 132.465 113.24 130.423 116.72 126.666ZM98.4 92.1594C94.76 91.0568 92.2 89.5458 90.68 87.6673C89.16 85.7888 88.4 83.4612 88.4 80.6843C88.4 77.8665 89.28 75.4572 91.08 73.4153C92.88 71.3735 95.32 70.1076 98.4 69.6175V92.1594ZM110.76 121.807C108.72 124.175 106.16 125.523 103.08 125.931V101.143C107.36 102.573 110.24 104.165 111.68 105.962C113.12 107.759 113.84 110.127 113.84 113.109C113.8 116.539 112.8 119.479 110.76 121.807V121.807Z" fill="#FF585F"/>
</g>
<defs>
<clipPath id="clip0_1901_9">
<rect width="200" height="200" fill="white"/>
</clipPath>
</defs>
</svg>
