<svg width="18" height="18" viewBox="0 0 18 18" fill="none" xmlns="http://www.w3.org/2000/svg">
<g clip-path="url(#clip0_2_46)">
<path d="M11.8125 6.74998V5.62498H9.5625V3.93748H8.4375V5.62498H7.3125C7.01422 5.62527 6.72825 5.7439 6.51733 5.95481C6.30642 6.16572 6.1878 6.4517 6.1875 6.74998V8.43748C6.1878 8.73575 6.30642 9.02173 6.51733 9.23264C6.72825 9.44356 7.01422 9.56218 7.3125 9.56248H10.6875V11.25H6.1875V12.375H8.4375V14.0625H9.5625V12.375H10.6875C10.9858 12.3746 11.2717 12.256 11.4826 12.0451C11.6935 11.8342 11.8122 11.5482 11.8125 11.25V9.56248C11.8122 9.2642 11.6936 8.97822 11.4827 8.76731C11.2718 8.5564 10.9858 8.43778 10.6875 8.43748H7.3125V6.74998H11.8125Z" fill="white"/>
<path d="M8.875 2.12502C10.21 2.12502 11.5151 2.5209 12.6251 3.2626C13.7351 4.00429 14.6003 5.0585 15.1112 6.2919C15.6221 7.5253 15.7558 8.8825 15.4953 10.1919C15.2349 11.5012 14.592 12.704 13.648 13.648C12.704 14.592 11.5012 15.2349 10.1919 15.4953C8.88249 15.7558 7.52529 15.6221 6.29189 15.1112C5.05849 14.6003 4.00428 13.7351 3.26258 12.6251C2.52088 11.5151 2.125 10.21 2.125 8.87502C2.13024 7.08641 2.84308 5.37257 4.10782 4.10783C5.37256 2.84309 7.0864 2.13025 8.875 2.12502ZM8.875 1.00002C7.31748 1.00002 5.79492 1.46188 4.49989 2.32719C3.20485 3.19251 2.19549 4.42242 1.59945 5.86138C1.00341 7.30035 0.847461 8.88375 1.15132 10.4114C1.45518 11.939 2.2052 13.3421 3.30654 14.4435C4.40788 15.5448 5.81107 16.2948 7.33867 16.5987C8.86627 16.9026 10.4497 16.7466 11.8886 16.1506C13.3276 15.5545 14.5575 14.5452 15.4228 13.2501C16.2881 11.9551 16.75 10.4325 16.75 8.87502C16.7439 6.78832 15.9122 4.78883 14.4367 3.3133C12.9612 1.83778 10.9617 1.00613 8.875 1.00002Z" fill="white"/>
</g>
<defs>
<clipPath id="clip0_2_46">
<rect width="18" height="18" fill="white"/>
</clipPath>
</defs>
</svg>
