<svg width="24" height="24" viewBox="0 0 24 24" fill="none" xmlns="http://www.w3.org/2000/svg">
<g clip-path="url(#clip0_2_88)">
<path d="M0.616235 11.4864C0.616235 8.71328 2.87291 6.45648 5.64701 6.45648H22.8974L18.3183 11.0356L18.7254 11.4427L23.9999 6.16819L18.7255 0.894058L18.3184 1.3015L22.8976 5.87978H5.64701C2.5551 5.87978 0.0408325 8.39535 0.0408325 11.486V11.5441H0.616705V11.4864H0.616235Z" fill="white"/>
<path d="M23.3837 12.5135C23.3837 15.2866 21.1265 17.5434 18.3534 17.5434H1.10293L5.68204 12.9643L5.27495 12.5572L0 17.8319L5.27448 23.1059L5.68157 22.698L1.10293 18.1198H18.3534C21.4448 18.1198 23.9595 15.6042 23.9595 12.5136V12.4555H23.3837V12.5135Z" fill="white"/>
</g>
<defs>
<clipPath id="clip0_2_88">
<rect width="24" height="24" fill="white"/>
</clipPath>
</defs>
</svg>
