<svg width="16" height="16" viewBox="0 0 16 16" fill="none" xmlns="http://www.w3.org/2000/svg">
<path d="M10.1933 5.14L8.66666 3.60667V11.3333C8.66666 11.5101 8.59642 11.6797 8.47139 11.8047C8.34637 11.9298 8.1768 12 7.99999 12C7.82318 12 7.65361 11.9298 7.52858 11.8047C7.40356 11.6797 7.33332 11.5101 7.33332 11.3333V3.60667L5.80666 5.14C5.68112 5.26554 5.51086 5.33607 5.33332 5.33607C5.15579 5.33607 4.98553 5.26554 4.85999 5.14C4.73445 5.01447 4.66393 4.84421 4.66393 4.66667C4.66393 4.48914 4.73445 4.31887 4.85999 4.19334L7.52666 1.52667C7.59006 1.46598 7.66482 1.4184 7.74666 1.38667C7.82646 1.3514 7.91274 1.33318 7.99999 1.33318C8.08724 1.33318 8.17352 1.3514 8.25332 1.38667C8.33516 1.4184 8.40992 1.46598 8.47332 1.52667L11.14 4.19334C11.2655 4.31887 11.3361 4.48914 11.3361 4.66667C11.3361 4.84421 11.2655 5.01447 11.14 5.14C11.0778 5.20216 11.004 5.25147 10.9228 5.28511C10.8416 5.31875 10.7546 5.33607 10.6667 5.33607C10.4891 5.33607 10.3189 5.26554 10.1933 5.14ZM12.6667 14.6667H3.33332C3.15651 14.6667 2.98694 14.5964 2.86192 14.4714C2.73689 14.3464 2.66666 14.1768 2.66666 14C2.66666 13.8232 2.73689 13.6536 2.86192 13.5286C2.98694 13.4036 3.15651 13.3333 3.33332 13.3333H12.6667C12.8435 13.3333 13.013 13.4036 13.1381 13.5286C13.2631 13.6536 13.3333 13.8232 13.3333 14C13.3333 14.1768 13.2631 14.3464 13.1381 14.4714C13.013 14.5964 12.8435 14.6667 12.6667 14.6667Z" fill="white"/>
</svg>
