<svg width="200" height="200" fill="none" xmlns="http://www.w3.org/2000/svg"><g clip-path="url(#clip0_1901_9)"><circle cx="100" cy="100" r="100" fill="#1E192D"/><path d="M171 100.117c0-32.504-21.659-60.85-52.711-68.935-2.969-.786-6.004 1.047-6.746 4.059-.775 3.011 1.033 6.088 4.003 6.84 26.113 6.776 44.35 30.671 44.35 58.036 0 24.123-14.17 45.498-35.377 54.892l5.132-12.111c1.195-2.848-.097-6.154-2.905-7.398-2.808-1.211-6.068.099-7.295 2.946l-10.006 23.633c-1.194 2.848.097 6.154 2.905 7.398l23.305 10.147c3.486 1.244 6.391-.819 7.295-2.946 1.194-2.848-.097-6.154-2.905-7.398l-10.136-4.419C154.603 153.536 171 128.397 171 100.117zm-86.03 57.804c-25.885-6.784-43.963-30.56-43.963-57.826 0-23.711 13.663-44.748 34.204-54.304l-4.767 11.285c-1.184 2.837.032 6.262 2.88 7.37 3.327 1.273 6.143-.26 7.23-2.934l9.92-23.581c.96-2.283.928-5.707-2.88-7.37L64.493 20.45c-2.784-1.207-6.016.097-7.232 2.935-1.184 2.837.096 6.131 2.88 7.37l10.75 4.697C46.319 46.77 30 71.85 30 100.095c0 32.386 21.502 60.598 52.25 68.687 3.712.978 6.048-1.501 6.688-4.045.736-3-1.024-6.033-3.968-6.816z" fill="#FF585F"/><path d="M116.72 126.666c3.52-3.757 5.28-8.494 5.28-14.129 0-2.573-.44-4.941-1.28-7.147a16.82 16.82 0 00-3.6-5.717c-1.56-1.592-3.6-2.94-6.08-4.083-1.32-.572-3.96-1.389-8-2.41V69.74c2.6.53 4.64 1.674 6.16 3.39 1.48 1.715 2.48 4.165 2.96 7.35l8.24-1.266c-.72-5.145-2.8-9.229-6.28-12.17-2.72-2.327-6.4-3.715-11.04-4.164V59h-4.72v3.88c-5.28.53-9.28 2.041-11.96 4.45-4.04 3.594-6.04 8.29-6.04 14.09 0 3.266.68 6.166 2.08 8.738 1.36 2.573 3.32 4.574 5.88 6.003 3.44 1.96 6.8 3.267 10.08 3.88v25.931c-3.12-.327-5.84-1.96-8.08-4.859-1.56-2.042-2.68-5.268-3.28-9.638L79 113.027c.28 4.206 1.36 7.8 3.16 10.74 1.8 2.94 3.96 5.064 6.48 6.37 2.48 1.307 5.76 2.206 9.72 2.737V141h4.72v-8.249c5.6-.286 10.16-2.328 13.64-6.085zM98.4 92.159c-3.64-1.102-6.2-2.613-7.72-4.492-1.52-1.878-2.28-4.206-2.28-6.983 0-2.817.88-5.227 2.68-7.269 1.8-2.041 4.24-3.307 7.32-3.797v22.541zm12.36 29.648c-2.04 2.368-4.6 3.716-7.68 4.124v-24.788c4.28 1.43 7.16 3.022 8.6 4.819 1.44 1.797 2.16 4.165 2.16 7.147-.04 3.43-1.04 6.37-3.08 8.698z" fill="#FF585F"/></g><defs><clipPath id="clip0_1901_9"><path fill="#fff" d="M0 0h200v200H0z"/></clipPath></defs></svg>