<svg width="24" height="24" fill="none" xmlns="http://www.w3.org/2000/svg"><g clip-path="url(#clip0_2_88)" fill="#fff"><path d="M.616 11.486a5.036 5.036 0 015.031-5.03h17.25l-4.579 4.58.407.407L24 6.168 18.726.894l-.408.408 4.58 4.578H5.647a5.613 5.613 0 00-5.606 5.606v.058h.576v-.058zm22.768 1.028a5.036 5.036 0 01-5.03 5.03H1.102l4.579-4.58-.407-.407L0 17.832l5.274 5.274.408-.408-4.58-4.578h17.251a5.613 5.613 0 005.606-5.606v-.058h-.575v.058z"/></g><defs><clipPath id="clip0_2_88"><path fill="#fff" d="M0 0h24v24H0z"/></clipPath></defs></svg>