<svg width="18" height="18" fill="none" xmlns="http://www.w3.org/2000/svg"><g clip-path="url(#clip0_2_38)" fill="#fff"><path d="M16.65 9.021a7.64 7.64 0 00-5.741-7.404.602.602 0 00-.735.436.602.602 0 00.436.735 6.43 6.43 0 014.83 6.233 6.432 6.432 0 01-3.852 5.896l.559-1.301a.608.608 0 00-.317-.794.608.608 0 00-.794.316l-1.09 2.538c-.13.306.01.661.316.795l2.538 1.09a.631.631 0 00.795-.317.608.608 0 00-.317-.794l-1.103-.475a7.629 7.629 0 004.475-6.954zm-9.253 6.233a6.432 6.432 0 01-4.83-6.233 6.432 6.432 0 013.758-5.853L5.8 4.384c-.13.306.003.675.316.794.366.138.675-.028.795-.316l1.09-2.542c.105-.246.102-.615-.317-.794L5.147.436a.608.608 0 00-.795.316c-.13.306.01.661.317.795l1.181.506a7.646 7.646 0 001.248 14.372c.408.105.665-.162.735-.436a.606.606 0 00-.436-.735z"/><path d="M10.427 11.3c.31-.324.464-.732.464-1.217a1.68 1.68 0 00-.112-.615 1.444 1.444 0 00-.316-.493 1.786 1.786 0 00-.535-.351 5.516 5.516 0 00-.703-.208V6.398a.96.96 0 01.541.292c.13.148.218.359.26.633l.725-.109c-.063-.443-.246-.794-.552-1.048-.24-.2-.563-.32-.97-.358v-.334h-.415v.334c-.464.045-.816.176-1.051.383-.356.31-.531.714-.531 1.213 0 .281.06.53.182.752.12.222.292.394.517.517.303.169.598.281.886.334v2.232c-.274-.028-.513-.168-.71-.418-.137-.176-.235-.453-.288-.83l-.707.134c.025.362.12.671.278.925.158.253.348.435.57.548.217.112.506.19.854.236v.7h.415v-.711c.492-.025.893-.2 1.198-.524zm-1.61-2.972c-.32-.094-.545-.225-.678-.386a.913.913 0 01-.2-.601.9.9 0 01.235-.626 1.05 1.05 0 01.643-.327v1.94zm1.087 2.553c-.18.204-.405.32-.675.355V9.102c.376.123.629.26.755.415.127.154.19.358.19.615a1.106 1.106 0 01-.27.749z"/></g><defs><clipPath id="clip0_2_38"><path fill="#fff" d="M0 0h18v18H0z"/></clipPath></defs></svg>